<?xml version="1.0" encoding="UTF-8" standalone="no"?>
<!-- Created with Inkscape (http://www.inkscape.org/) -->
<svg
   xmlns:dc="http://purl.org/dc/elements/1.1/"
   xmlns:cc="http://web.resource.org/cc/"
   xmlns:rdf="http://www.w3.org/1999/02/22-rdf-syntax-ns#"
   xmlns:svg="http://www.w3.org/2000/svg"
   xmlns="http://www.w3.org/2000/svg"
   xmlns:sodipodi="http://inkscape.sourceforge.net/DTD/sodipodi-0.dtd"
   xmlns:inkscape="http://www.inkscape.org/namespaces/inkscape"
   sodipodi:docname="FMA Brotherhood - Japanese logo.svg"
   sodipodi:docbase="d:\My Documents\Jimmy"
   height="372.00000px"
   width="1050.0000px"
   inkscape:version="0.40+cvs"
   sodipodi:version="0.32"
   id="svg1340">
  <metadata
     id="metadata1345">
    <rdf:RDF
       id="RDF1347">
      <cc:Work
         id="Work1349"
         rdf:about="">
        <dc:format
           id="format1351">image/svg+xml</dc:format>
        <dc:type
           rdf:resource="http://purl.org/dc/dcmitype/StillImage"
           id="type1353" />
      </cc:Work>
    </rdf:RDF>
  </metadata>
  <defs
     id="defs1343" />
  <sodipodi:namedview
     inkscape:current-layer="svg1340"
     inkscape:window-y="-4"
     inkscape:window-x="-4"
     inkscape:cy="185.99999"
     inkscape:cx="525.00000"
     inkscape:zoom="0.88761905"
     inkscape:window-height="721"
     inkscape:window-width="1024"
     inkscape:pageshadow="2"
     inkscape:pageopacity="0.0"
     borderopacity="1.0"
     bordercolor="#666666"
     pagecolor="#ffffff"
     id="base" />
  <path
     d="M 69.651501,281.75000 C 67.843457,278.83298 56.794832,240.28466 57.194789,238.28892 C 57.430276,237.11386 59.327564,236.68622 65.500000,236.41696 C 69.900000,236.22503 74.962500,235.80730 76.750000,235.48868 L 80.000000,234.90937 L 80.000000,225.45469 C 80.000000,220.25461 79.820000,216.00000 79.600000,216.00000 C 79.380000,216.00000 77.625000,217.57500 75.700000,219.50000 C 70.081106,225.11889 64.675392,223.83371 62.968891,216.47322 C 62.462243,214.28795 62.027930,206.87500 62.003750,200.00000 C 61.963932,188.67875 61.446246,183.03194 59.413859,171.75000 C 58.874480,168.75586 59.046807,168.00000 60.268815,168.00000 C 62.771460,168.00000 71.865709,178.78326 75.574959,186.14885 C 77.472561,189.91698 79.244486,193.00000 79.512572,193.00000 C 79.780657,193.00000 80.000000,184.00000 80.000000,173.00000 L 80.000000,153.00000 L 70.535184,153.00000 C 62.013263,153.00000 60.960942,152.79554 59.971952,150.94759 C 59.367824,149.81877 59.015941,148.15574 59.189989,147.25198 C 59.463266,145.83297 60.908205,145.64642 69.780414,145.88469 L 80.054386,146.16059 L 79.777193,131.33030 C 79.509557,117.01130 79.425781,116.48942 77.347256,116.19319 C 75.789084,115.97113 74.131926,117.20256 71.347256,120.65178 C 64.948552,128.57751 57.181736,136.51507 56.496091,135.82942 C 56.140971,135.47430 58.537591,126.92991 61.821915,116.84188 C 70.486223,90.228843 74.618423,71.343917 78.580938,40.250000 C 78.883994,37.871919 79.646122,36.031503 80.311273,36.071525 C 80.965073,36.110864 87.575000,39.148364 95.000000,42.821525 C 109.44639,49.968179 110.83075,51.422352 107.03469,55.463072 L 104.88837,57.747722 L 109.69419,61.282966 C 112.33738,63.227350 115.59094,65.984113 116.92431,67.409105 C 118.25769,68.834097 119.78970,70.000000 120.32878,70.000000 C 120.95062,70.000000 121.08161,65.247481 120.68711,57.000000 C 120.14150,45.593388 120.25757,44.000000 121.63411,44.000000 C 122.49697,44.000000 127.83278,46.483415 133.49147,49.518701 L 143.77999,55.037401 L 167.14000,54.768701 L 190.50000,54.500000 L 193.57407,48.711640 C 197.24815,41.793506 199.15540,39.715490 201.07246,40.541899 C 203.02716,41.384534 215.09352,55.362366 217.24560,59.277076 C 219.19624,62.825363 218.84546,65.095006 215.66562,69.500000 L 213.50000,72.500000 L 212.97292,167.50000 C 212.56365,241.26666 212.15764,263.35398 211.15638,266.32078 C 209.55251,271.07313 203.78737,277.56687 199.06821,279.93666 C 194.79406,282.08297 185.45497,284.39922 184.20070,283.62404 C 183.70887,283.32007 183.01929,278.66782 182.66829,273.28569 C 181.64604,257.61061 178.24450,247.40835 172.09158,241.56291 C 166.83223,236.56638 167.70424,235.89877 179.07345,236.21755 C 188.07671,236.46999 189.29846,236.29378 190.57345,234.55887 C 191.75732,232.94796 191.99462,225.37767 191.96840,190.05887 L 191.93680,147.50000 L 189.46840,150.30576 L 187.00000,153.11153 L 187.00000,185.47398 C 187.00000,203.27332 186.72047,218.56487 186.37882,219.45520 C 186.03717,220.34552 184.38229,221.78519 182.70130,222.65446 C 179.85841,224.12458 179.55261,224.10865 178.32249,222.42635 C 177.59512,221.43161 177.00000,218.95189 177.00000,216.91586 C 177.00000,214.46272 176.46642,213.00922 175.41821,212.60699 C 173.19301,211.75310 159.73704,211.87798 158.35911,212.76531 C 157.69941,213.19014 157.06677,217.15667 156.85911,222.17003 C 156.54580,229.73424 156.18581,231.17443 154.03662,233.46162 C 151.03680,236.65405 147.84408,236.44781 146.89067,233.00000 C 145.73652,228.82625 145.86135,141.20372 147.02247,140.48611 C 147.58483,140.13856 150.30156,140.60372 153.05966,141.51981 C 160.22895,143.90107 161.00000,143.31748 161.00000,135.50995 C 161.00000,127.35686 159.82467,126.56032 149.50000,127.71628 L 142.50000,128.50000 L 142.00000,201.82724 L 141.50000,275.15447 L 137.83064,278.51679 C 131.40682,284.40309 122.55181,284.12453 120.92438,277.98497 C 120.56209,276.61824 120.49435,267.12827 120.77384,256.89616 C 121.14486,243.31291 120.96691,238.09758 120.11445,237.57073 C 119.40341,237.13129 114.94954,240.71386 108.72345,246.73334 C 103.10055,252.16964 93.212500,260.99998 86.750000,266.35633 C 78.848433,272.90542 75.000000,276.75614 75.000000,278.11331 C 75.000000,280.59951 73.260019,284.00000 71.987869,284.00000 C 71.469899,284.00000 70.418534,282.98750 69.651501,281.75000 z M 110.99794,228.93335 C 115.09970,227.79670 119.02815,226.39160 119.72784,225.81091 C 121.23514,224.55996 121.59576,194.61345 120.09687,195.16667 C 119.60014,195.35000 117.07451,199.55000 114.48436,204.50000 C 111.89420,209.45000 108.02561,216.13878 105.88749,219.36395 C 102.25495,224.84333 101.10231,228.76897 102.66667,230.33333 C 103.48192,231.14859 102.26772,231.35262 110.99794,228.93335 z M 177.00000,173.02432 C 177.00000,148.43262 177.28509,141.06927 178.25000,140.73963 C 179.64658,140.26252 187.97359,142.78537 189.45000,144.13291 C 191.53252,146.03368 192.00000,144.65575 192.00000,136.61663 C 192.00000,127.03415 192.00483,127.03888 182.18426,127.01365 C 172.25097,126.98814 173.00000,123.73096 173.00000,166.95185 C 173.00000,204.70694 173.19704,207.03227 176.25000,205.30604 C 176.66250,205.07280 177.00000,190.54602 177.00000,173.02432 z M 160.76678,177.50164 C 160.91350,162.66714 160.79568,149.90993 160.50494,149.15229 C 160.08166,148.04922 159.67982,148.02084 158.48817,149.00982 C 157.23675,150.04841 157.00000,154.61195 157.00000,177.69577 C 157.00000,203.30102 157.11766,205.12402 158.75000,204.81005 C 160.35712,204.50094 160.52178,202.27126 160.76678,177.50164 z M 104.86498,190.50000 C 105.45678,185.55000 106.23248,177.56250 106.58877,172.75000 C 106.94505,167.93750 107.52684,164.00000 107.88163,164.00000 C 108.23641,164.00000 110.86544,165.57500 113.72390,167.50000 C 116.58236,169.42500 119.38885,171.00000 119.96055,171.00000 C 120.60282,171.00000 121.00000,167.56105 121.00000,162.00000 L 121.00000,153.00000 L 111.50000,153.00000 L 102.00000,153.00000 L 102.03041,177.75000 C 102.06162,203.15011 102.90112,206.92625 104.86498,190.50000 z M 105.95407,138.21976 C 106.60102,135.62389 107.81425,132.44498 108.65013,131.15551 L 110.16993,128.81102 L 112.64737,131.13845 C 114.00997,132.41854 116.03343,134.93606 117.14397,136.73294 C 118.25450,138.52982 119.57642,140.00000 120.08156,140.00000 C 120.60449,140.00000 121.00000,132.46398 121.00000,122.50000 C 121.00000,108.30244 120.74004,105.00000 119.62244,105.00000 C 116.96032,105.00000 115.95659,107.42472 117.22626,110.78848 C 117.87713,112.51283 118.05648,114.27834 117.62481,114.71183 C 117.19314,115.14533 113.61346,115.72500 109.66998,116.00000 L 102.50000,116.50000 L 102.22165,130.89597 C 101.98325,143.22619 102.14667,145.12316 103.36055,144.11573 C 104.14004,143.46882 105.30712,140.81563 105.95407,138.21976 z M 165.58426,119.86367 C 165.97052,119.23869 166.46529,115.52619 166.68374,111.61367 L 167.08093,104.50000 L 165.04859,108.18761 C 160.39902,116.62405 152.40256,117.39844 149.65585,109.67825 C 149.29937,108.67629 148.13319,102.15129 147.06433,95.178253 C 143.34167,70.892308 141.84065,72.384075 142.22764,99.985144 L 142.50000,119.41134 L 145.00000,120.10599 C 149.27763,121.29457 164.81294,121.11169 165.58426,119.86367 z M 180.99219,114.28133 C 184.45431,105.69625 185.57150,104.78199 188.36220,108.25000 C 189.57931,109.76250 190.89573,111.00000 191.28756,111.00000 C 191.67940,111.00000 192.00000,105.82500 192.00000,99.500000 C 192.00000,90.960916 191.67816,88.002776 190.75000,88.010782 C 190.06250,88.016713 187.70000,91.469617 185.50000,95.683902 C 183.30000,99.898188 179.57634,106.73972 177.22521,110.88732 C 172.74485,118.79103 172.49003,121.35416 176.23772,120.82014 C 177.94877,120.57632 179.08225,119.01745 180.99219,114.28133 z M 95.830147,109.12614 C 98.034742,107.72855 103.97051,91.861626 103.92042,87.500000 C 103.85161,81.508225 101.62002,68.500000 100.66093,68.500000 C 100.19945,68.500000 97.640038,73.385740 94.973360,79.357200 C 92.306681,85.328660 87.787013,94.265176 84.929652,99.216124 C 80.792280,106.38495 80.016006,108.39617 81.117225,109.09361 C 82.884671,110.21300 94.076667,110.23774 95.830147,109.12614 z M 169.90459,86.576322 C 170.50707,80.568299 171.00000,73.507357 171.00000,70.885339 C 171.00000,68.263321 171.48194,65.820181 172.07097,65.456139 C 172.66000,65.092097 176.93059,67.315539 181.56116,70.397122 C 186.19173,73.478705 190.45535,76.000000 191.03588,76.000000 C 191.70150,76.000000 191.98216,73.506723 191.79569,69.250000 L 191.50000,62.500000 L 167.56853,62.231473 C 153.97469,62.078941 143.24057,62.359434 142.71919,62.880810 C 140.96922,64.630783 143.00280,67.512222 147.73974,69.994561 C 153.97746,73.263370 161.65514,80.955322 163.98042,86.265442 C 165.00028,88.594449 166.15719,92.698827 166.55134,95.386282 C 167.56274,102.28249 168.60391,99.547027 169.90459,86.576322 z "
     style="fill:#020202"
     id="path1359" />
  <path
     d="M 467.99118,282.80103 C 466.66132,282.30909 465.33177,281.66589 465.03662,281.37170 C 464.74148,281.07752 464.27500,268.38604 464.00000,253.16841 L 463.50000,225.50000 L 459.14547,231.84906 C 449.88575,245.35006 436.63009,259.12334 423.82121,268.55270 C 413.98708,275.79218 413.70509,274.73372 421.86673,261.21645 C 429.02298,249.36429 435.55457,236.46250 440.89656,223.62701 C 445.77526,211.90469 451.22392,195.17133 450.52857,194.04622 C 450.24989,193.59532 448.14416,193.87332 445.84917,194.66401 C 437.59148,197.50901 434.04478,194.96970 434.01474,186.19098 C 434.00663,183.82102 433.58949,182.13567 433.08777,182.44576 C 432.58604,182.75584 430.30413,186.41934 428.01686,190.58687 C 425.72958,194.75440 420.74009,202.89519 416.92909,208.67751 C 410.23416,218.83554 409.06387,221.97409 410.89398,224.86270 C 411.60242,225.98088 413.70800,225.67932 422.62867,223.18206 C 428.60790,221.50823 433.85699,220.48700 434.29331,220.91267 C 436.25578,222.82725 416.98638,243.65304 393.00000,265.54122 C 388.87500,269.30539 384.88745,273.84457 384.13878,275.62827 C 382.48387,279.57109 380.37707,280.57308 379.03082,278.05759 C 377.10767,274.46415 365.88366,237.84262 366.20078,236.19593 C 366.44550,234.92524 368.48851,234.25416 374.87608,233.34629 C 389.01194,231.33716 388.00000,232.09784 388.00000,223.48095 C 388.00000,219.36643 387.61974,216.00000 387.15499,216.00000 C 386.69023,216.00000 385.49549,216.90000 384.50000,218.00000 C 382.06083,220.69525 375.70933,220.70933 373.02544,218.02544 C 370.34432,215.34432 370.18220,214.18475 369.52647,193.00000 C 369.21152,182.82500 368.69391,172.36250 368.37623,169.75000 C 367.89846,165.82107 368.07531,165.00000 369.39931,165.00000 C 371.53636,165.00000 381.99236,175.59202 384.47740,180.27425 C 385.56498,182.32341 386.81390,184.00000 387.25280,184.00000 C 387.69169,184.00000 387.92686,176.91250 387.77539,168.25000 L 387.50000,152.50000 L 377.71710,152.50000 C 367.23944,152.50000 366.04664,151.95492 366.01531,147.15260 C 366.00019,144.83422 366.12049,144.80788 375.75000,145.02121 C 381.11250,145.14001 386.06250,145.18384 386.75000,145.11860 C 387.68661,145.02974 388.00000,141.39148 388.00000,130.60699 C 388.00000,118.06743 387.78431,116.13121 386.32502,115.57123 C 385.12735,115.11164 383.34632,116.41134 380.07502,120.13214 C 370.45012,131.07955 365.11807,136.45141 364.49506,135.82840 C 364.13938,135.47271 366.11281,128.50331 368.88046,120.34085 C 376.71409,97.237626 382.39483,72.831645 385.50620,48.912146 C 386.39419,42.085466 387.46329,36.152777 387.88197,35.728394 C 388.88025,34.716528 417.13449,47.266110 418.40974,49.287800 C 419.08492,50.358185 418.95373,51.728273 417.98991,53.672341 C 417.21887,55.227553 416.56821,56.777937 416.54401,57.117638 C 416.51980,57.457339 418.75000,59.441546 421.50000,61.526987 C 424.25000,63.612428 427.90997,66.934491 429.63328,68.909349 L 432.76655,72.500000 L 448.38763,72.820456 C 462.13321,73.102438 464.08430,72.943886 464.63843,71.499859 C 464.98478,70.597280 464.78098,62.353075 464.18553,53.179403 C 463.59009,44.005731 463.42916,36.173087 463.82793,35.773527 C 464.72290,34.876763 491.42938,42.281539 493.50101,44.000838 C 495.87258,45.969068 495.25870,49.377971 491.96429,52.534208 C 488.99117,55.382641 488.93448,55.618420 489.21429,63.971299 L 489.50000,72.500000 L 493.08559,72.800564 C 495.16981,72.975274 497.12849,72.550110 497.76332,71.785184 C 498.36399,71.061416 500.72131,65.638662 503.00179,59.734621 C 506.17669,51.515016 507.57645,49.000000 508.97630,49.000000 C 511.03978,49.000000 528.92012,73.337968 528.97017,76.214816 C 529.02536,79.387518 525.48100,80.000000 507.06574,80.000000 L 489.00000,80.000000 L 489.00000,91.391592 C 489.00000,102.73336 489.01102,102.78595 491.52052,103.41579 C 495.37476,104.38315 497.71662,102.50649 501.13359,95.712348 C 504.05820,89.897185 505.51236,88.052224 507.20022,88.015313 C 508.04660,87.996804 520.86024,103.23166 524.46079,108.53735 C 527.45998,112.95691 527.12279,115.23753 522.88525,119.19363 L 520.00000,121.88726 L 520.00000,151.49329 C 520.00000,184.19463 519.84812,185.10468 513.77424,188.79772 C 509.25131,191.54776 503.00305,192.45748 500.61994,190.71293 C 499.58591,189.95596 498.46091,187.62236 498.11994,185.52714 C 497.38815,181.03036 494.88140,178.94235 492.25000,180.63776 C 490.03022,182.06796 490.35405,183.94822 494.20687,192.00000 C 498.50347,200.97919 511.81610,214.20888 521.71251,219.33427 C 525.67938,221.38873 529.18239,223.48610 529.49696,223.99509 C 529.81153,224.50407 528.74571,227.54176 527.12847,230.74550 C 522.97796,238.96762 520.10640,249.07269 518.66982,260.51170 C 517.98988,265.92578 516.95857,270.51381 516.37801,270.70733 C 515.19221,271.10260 509.54214,262.97677 505.61732,255.23152 C 501.09565,246.30844 496.94996,234.94650 494.05781,223.55082 C 492.51527,217.47287 490.85872,211.15000 490.37659,209.50000 C 489.81074,207.56346 489.32276,218.25863 489.00000,239.67103 L 488.50000,272.84207 L 486.00000,275.51880 C 480.32336,281.59674 472.87624,284.60814 467.99118,282.80103 z M 414.49084,184.16311 C 415.31090,177.19840 415.99282,169.02500 416.00624,166.00000 C 416.03366,159.81613 417.07811,157.33117 419.13820,158.54842 C 419.88719,158.99098 423.05332,161.29863 426.17404,163.67654 C 429.29477,166.05444 432.28117,168.00000 432.81050,168.00000 C 434.18687,168.00000 435.08820,160.13538 434.18576,156.00000 L 433.42197,152.50000 L 423.10698,152.21387 C 416.36023,152.02672 412.30908,152.32852 411.39600,153.08631 C 410.29222,154.00237 410.00000,158.16727 410.00000,172.98287 C 410.00000,193.77258 410.75487,202.89495 412.16072,199.09458 C 412.62223,197.84698 413.67079,191.12782 414.49084,184.16311 z M 463.77934,173.15753 C 464.74119,172.54717 464.98936,168.89038 464.77934,158.42285 L 464.50000,144.50000 L 460.50000,144.50000 L 456.50000,144.50000 L 456.21959,157.94955 C 456.06536,165.34680 456.16373,171.98430 456.43820,172.69955 C 456.98922,174.13548 461.76839,174.43363 463.77934,173.15753 z M 496.77934,173.15753 C 497.74119,172.54717 497.98936,168.89038 497.77934,158.42285 L 497.50000,144.50000 L 493.50000,144.50000 L 489.50000,144.50000 L 489.21959,157.94955 C 489.06536,165.34680 489.16373,171.98430 489.43820,172.69955 C 489.98922,174.13548 494.76839,174.43363 496.77934,173.15753 z M 415.59851,135.30503 C 417.19433,130.52280 419.04757,126.44027 419.71682,126.23276 C 420.38607,126.02524 423.53607,129.47192 426.71682,133.89204 C 429.89757,138.31216 432.83750,141.94468 433.25000,141.96431 C 433.66250,141.98394 434.07455,139.86250 434.16566,137.25000 C 434.41033,130.23431 433.82347,101.56061 433.42630,101.12557 C 433.23829,100.91963 431.60296,102.00105 429.79223,103.52872 C 427.05698,105.83639 426.50000,106.99940 426.50000,110.40315 L 426.50000,114.50000 L 419.50000,114.78336 C 414.39404,114.99006 412.16178,115.51528 411.25000,116.72449 C 409.92187,118.48588 409.40481,142.07148 410.66667,143.33333 C 412.12079,144.78746 412.80700,143.67041 415.59851,135.30503 z M 464.50000,123.50000 L 464.50000,110.50000 L 460.50000,110.50000 L 456.50000,110.50000 L 456.22056,123.80894 L 455.94113,137.11787 L 460.22056,136.80894 L 464.50000,136.50000 L 464.50000,123.50000 z M 497.50000,123.50000 L 497.50000,110.50000 L 493.50000,110.50000 L 489.50000,110.50000 L 489.22056,123.80894 L 488.94113,137.11787 L 493.22056,136.80894 L 497.50000,136.50000 L 497.50000,123.50000 z M 404.66752,108.22665 C 405.30966,107.81815 407.01672,104.34447 408.46100,100.50738 C 409.90528,96.670279 411.74240,93.164037 412.54348,92.715728 C 413.46341,92.200910 413.99360,90.353202 413.98264,87.700310 C 413.96170,82.636363 411.38624,69.986245 410.11800,68.717997 C 409.57364,68.173644 406.58257,73.273022 402.65277,81.445202 C 399.04644,88.944710 394.46965,97.757605 392.48213,101.02941 C 390.49461,104.30122 389.14962,107.43307 389.49325,107.98908 C 390.20944,109.14790 402.90688,109.34670 404.66752,108.22665 z M 464.78329,91.196998 L 464.50000,80.500000 L 450.50000,80.500000 L 436.50000,80.500000 L 436.20110,86.795411 L 435.90221,93.090822 L 445.70110,97.698425 C 456.84196,102.93704 460.73525,104.06391 463.28329,102.78739 C 464.85587,101.99956 465.03311,100.63003 464.78329,91.196998 z "
     style="fill:#020202"
     id="path1460" />
  <path
     d="M 936.55670,281.77749 C 935.17861,279.81000 935.00000,270.18420 935.00000,197.88448 C 935.00000,123.09461 934.86176,116.16093 933.35912,115.58431 C 932.45664,115.23800 930.88164,115.22018 929.85912,115.54471 C 928.07280,116.11167 927.99829,118.66760 927.95645,180.81739 C 927.93250,216.39282 927.53856,247.43631 927.08105,249.80292 C 926.62353,252.16953 925.22532,255.19570 923.97392,256.52776 C 921.03642,259.65458 913.79450,262.41622 910.62107,261.61974 C 906.13592,260.49404 905.72649,256.76076 906.21172,221.41348 C 906.45597,203.61970 906.38081,188.61617 906.04469,188.07231 C 905.70857,187.52845 904.23825,188.58151 902.77732,190.41243 L 900.12109,193.74139 L 899.81054,220.66753 C 899.53709,244.37768 899.28932,247.91486 897.73607,250.28291 C 895.34539,253.92769 892.29711,255.77169 887.36019,256.55965 C 882.12497,257.39521 879.00000,254.78694 879.00000,249.58179 C 879.00000,243.78567 878.28378,243.00000 873.00000,243.00000 C 869.55826,243.00000 868.04349,243.44429 867.60699,244.58179 C 867.27314,245.45177 867.00000,251.06111 867.00000,257.04699 C 867.00000,267.88898 866.98769,267.94443 863.76562,271.61416 C 859.94793,275.96227 855.57678,278.00000 850.06730,278.00000 C 843.75018,278.00000 843.61801,277.32601 844.08899,247.51490 C 844.31505,233.20670 844.50000,188.98737 844.50000,149.24972 C 844.50000,91.209001 844.75177,76.999496 845.78013,76.999721 C 846.48421,76.999874 849.79945,78.152906 853.14734,79.562013 C 856.49523,80.971120 859.85667,81.885244 860.61720,81.593398 C 861.73370,81.164958 862.00000,77.006521 862.00000,60.000000 C 862.00000,42.349593 862.23919,38.845444 863.47641,38.370678 C 864.89806,37.825140 891.19403,48.114899 893.75000,50.216902 C 896.14225,52.184263 895.16807,55.703287 891.65784,57.774369 C 889.56039,59.011897 885.77976,63.610896 881.50647,70.123145 C 873.55966,82.233642 872.85228,84.000000 875.94911,84.000000 C 879.24370,84.000000 881.59023,82.399095 883.99218,78.512650 C 885.18620,76.580692 886.81583,75.000000 887.61359,75.000000 C 888.41135,75.000000 892.64965,78.532984 897.03203,82.851076 C 905.98391,91.671633 907.03901,94.735817 902.57000,98.934243 C 900.16727,101.19149 900.13640,101.45441 899.82000,122.35856 C 899.45561,146.43292 899.40368,146.60988 891.55366,150.52995 C 883.50218,154.55061 879.00000,153.54798 879.00000,147.73426 C 879.00000,142.87941 877.37150,141.00000 873.16482,141.00000 C 871.09417,141.00000 868.86000,141.54000 868.20000,142.20000 C 866.80347,143.59653 866.50337,171.66859 867.86206,173.81105 C 868.41240,174.67885 870.35121,175.01694 873.59675,174.81105 C 878.49223,174.50049 878.50475,174.49060 881.50000,168.56598 C 883.15000,165.30227 885.00539,162.47131 885.62309,162.27495 C 886.24079,162.07859 891.06820,166.49951 896.35067,172.09920 C 904.00400,180.21215 906.08939,181.93062 906.61598,180.55836 C 906.97944,179.61119 907.05896,161.09809 906.79268,139.41812 C 906.42718,109.65917 906.59593,100.00000 907.48133,100.00000 C 908.12637,100.00000 913.23126,102.05496 918.82554,104.56657 C 925.01024,107.34326 930.07542,109.00906 931.74848,108.81657 L 934.50000,108.50000 L 934.77096,88.169648 L 935.04192,67.839296 L 919.36197,68.105988 L 903.68201,68.372679 L 902.80382,65.998700 C 900.85968,60.743212 900.11741,60.869807 934.00000,60.678165 L 965.50000,60.500000 L 970.50000,50.500000 C 974.24798,43.004031 975.98427,40.500000 977.43398,40.500000 C 980.19304,40.500000 999.00000,61.381914 999.00000,64.445381 C 999.00000,65.732734 998.28820,67.059167 997.41821,67.393011 C 996.54823,67.726855 987.82137,68.000000 978.02520,68.000000 C 962.70619,68.000000 960.12905,68.221329 959.60699,69.581787 C 959.27314,70.451771 959.00000,79.136771 959.00000,88.881787 C 959.00000,107.98244 959.26245,109.00000 964.18884,109.00000 C 966.67303,109.00000 967.41707,108.12609 971.00000,101.00000 C 974.82889,93.384707 976.17115,92.097957 978.54677,93.765313 C 979.12249,94.169391 983.73499,99.144873 988.79677,104.82194 C 994.82272,111.58039 998.00000,115.94947 998.00000,117.47733 C 998.00000,118.76072 996.42500,121.69593 994.50000,124.00000 L 991.00000,128.18923 L 991.00000,182.04539 C 991.00000,216.26283 990.61283,237.70689 989.93824,240.85239 C 987.73103,251.14426 981.35233,257.47242 971.90869,258.73907 C 967.48591,259.33229 967.49897,259.36113 966.46103,246.71030 C 965.70031,237.43831 962.99825,226.82811 961.25000,226.24807 C 960.27393,225.92422 959.99918,230.94678 959.99626,249.16667 C 959.99189,276.45727 959.73567,277.35269 950.73151,281.54480 C 943.97474,284.69058 938.65824,284.77786 936.55670,281.77749 z M 878.39301,234.41821 C 879.32077,232.00052 879.08517,184.68259 878.13794,183.18895 C 877.58760,182.32115 875.64879,181.98306 872.40325,182.18895 L 867.50000,182.50000 L 867.21841,207.00000 C 867.06354,220.47500 867.18461,232.51250 867.48747,233.75000 C 867.96475,235.70026 868.68741,236.00000 872.91206,236.00000 C 876.43399,236.00000 877.95440,235.56121 878.39301,234.41821 z M 965.86686,211.66043 C 967.45172,209.75078 968.64980,121.54303 967.14240,117.75000 C 966.35911,115.77907 965.34422,115.00000 963.55993,115.00000 C 958.71749,115.00000 958.63792,115.96367 959.39818,165.40288 C 959.78688,190.67969 960.33286,211.72956 960.61147,212.18036 C 961.40353,213.46195 964.63724,213.14202 965.86686,211.66043 z M 877.96482,133.06574 C 878.57214,131.93094 879.00000,123.43081 879.00000,112.50000 C 879.00000,101.56919 878.57214,93.069059 877.96482,91.934259 C 876.76898,89.699821 870.19454,89.205461 868.20000,91.200000 C 867.34627,92.053731 867.00000,98.200000 867.00000,112.50000 C 867.00000,126.80000 867.34627,132.94627 868.20000,133.80000 C 870.19454,135.79454 876.76898,135.30018 877.96482,133.06574 z "
     style="fill:#020202"
     id="path1438" />
  <path
     d="M 278.00000,254.74148 C 278.00000,253.97014 279.95727,251.93344 282.34949,250.21547 C 290.08320,244.66154 301.84487,233.00771 308.14991,224.65161 C 323.45105,204.37293 330.30564,181.04519 330.37926,149.00000 C 330.46867,110.08913 320.91560,89.030664 301.32999,84.964707 C 295.64176,83.783834 288.00000,84.474571 288.00000,86.169601 C 288.00000,86.716194 289.56278,89.070579 291.47286,91.401569 C 301.05424,103.09439 303.07920,115.27526 298.49617,133.64936 C 294.97546,147.76446 286.53047,173.25597 279.47979,191.05100 C 265.65338,225.94715 257.32784,238.00000 247.04966,238.00000 C 242.95400,238.00000 240.52730,235.34245 236.23464,226.15613 C 234.26694,221.94526 231.21741,216.47500 229.45790,214.00000 C 223.06201,205.00329 221.67851,200.68703 219.99895,184.48989 C 217.03152,155.87289 228.60901,119.22901 247.68678,96.855208 C 260.97852,81.267076 276.30908,73.768721 295.00000,73.713759 C 324.13906,73.628074 347.75937,94.673428 356.63338,128.62820 C 358.67566,136.44261 359.32223,141.76245 359.73577,154.15392 C 360.51696,177.56195 357.72359,193.42017 350.00878,209.37507 C 341.83233,226.28465 329.71315,238.62625 313.50000,246.55384 C 300.36232,252.97766 278.00000,258.13525 278.00000,254.74148 z M 251.84893,196.21216 C 258.42963,186.97042 272.77345,142.50871 277.56492,116.50000 C 279.49191,106.04001 279.12012,93.691553 276.80860,91.380029 C 275.49796,90.069387 274.63234,90.638166 269.35995,96.274367 C 251.02935,115.86984 238.30433,154.89703 241.88953,180.52519 C 243.58591,192.65144 246.06015,198.91459 249.18191,198.98469 C 249.55695,198.99311 250.75711,197.74547 251.84893,196.21216 z "
     style="fill:#020202"
     id="path1422" />
  <g
     id="g1530">
    <path
       d="M 526.90099,271.81574 C 526.40545,270.88940 526.00000,269.30275 526.00000,268.28986 C 526.00000,266.54039 527.53878,266.44953 556.75000,266.47412 L 587.50000,266.50000 L 587.50000,225.00000 L 587.50000,183.50000 L 562.02913,183.39183 L 536.55827,183.28367 L 535.29607,180.19038 C 534.50940,178.26247 534.39792,176.87211 535.00015,176.49991 C 535.53159,176.17146 547.56147,175.81211 561.73321,175.70136 L 587.50000,175.50000 L 587.50000,157.00000 L 587.50000,138.50000 L 573.20798,138.22229 C 561.72826,137.99922 558.80479,137.65487 558.35099,136.47229 C 557.37647,133.93272 554.94903,134.82769 547.61172,140.43173 C 540.75293,145.67028 527.34151,154.00000 525.76587,154.00000 C 523.96735,154.00000 525.46913,151.38503 533.37076,140.75798 C 537.97468,134.56609 544.34628,125.22500 547.52986,120.00000 C 559.49571,100.36127 573.72456,67.711614 578.47195,49.000000 C 579.37898,45.425000 580.56119,40.812500 581.09909,38.750000 C 581.69884,36.450335 582.67652,35.000000 583.62700,35.000000 C 584.47945,35.000000 592.34300,37.532679 601.10157,40.628176 C 614.94912,45.522248 617.10601,46.574208 617.63786,48.693255 C 618.09017,50.495416 617.56582,51.843753 615.62474,53.869798 C 614.18113,55.376600 613.00000,57.080205 613.00000,57.655588 C 613.00000,61.330431 631.65048,81.223351 641.35690,87.901546 C 648.81147,93.030425 663.80175,99.759911 674.00000,102.55580 C 679.22500,103.98825 684.06250,105.33507 684.75000,105.54874 C 686.82613,106.19398 686.16844,108.99952 683.00461,112.99418 C 677.77539,119.59661 673.79588,128.99413 671.67448,139.75000 C 670.22910,147.07835 669.24170,150.00000 668.21040,150.00000 C 666.37019,150.00000 658.52695,144.22699 654.05383,139.58007 C 650.65668,136.05092 647.70884,135.04406 646.50000,137.00000 C 646.13148,137.59628 639.69516,138.00000 630.55761,138.00000 C 615.51102,138.00000 615.22233,138.04078 614.63029,140.25000 C 613.84087,143.19571 613.82097,172.36989 614.60699,174.41821 C 615.11080,175.73113 617.12975,176.00000 626.48454,176.00000 C 634.32198,176.00000 638.04773,175.61924 638.71576,174.75000 C 639.24412,174.06250 641.59865,168.88750 643.94805,163.25000 C 647.17156,155.51506 648.67088,153.00000 650.05844,153.00000 C 651.16281,153.00000 656.13076,157.86608 662.49728,165.18378 C 670.89067,174.83116 673.03520,177.90179 672.79869,179.93378 L 672.50000,182.50000 L 644.21931,182.76563 L 615.93862,183.03125 L 614.86454,185.76563 C 613.68454,188.76966 614.22411,263.93557 615.43979,265.90258 C 615.87785,266.61137 620.89438,267.00000 629.60553,267.00000 L 643.09302,267.00000 L 644.61805,264.25000 C 645.45682,262.73750 648.26602,256.77500 650.86071,251.00000 C 654.49468,242.91187 656.02261,240.50000 657.51249,240.50000 C 658.84379,240.50000 662.64630,244.86374 669.71192,254.50000 C 679.62441,268.01888 681.40479,271.56564 678.75000,272.50512 C 678.06250,272.74841 643.81795,273.07179 602.65099,273.22374 C 533.33297,273.47959 527.73540,273.37554 526.90099,271.81574 z M 621.71531,118.00000 L 627.04879,105.50000 L 621.57909,94.000000 C 618.57075,87.675000 614.75682,78.457347 613.10368,73.516328 C 611.45054,68.575308 609.66052,64.386840 609.12587,64.208622 C 608.59121,64.030404 606.00890,68.037444 603.38740,73.113157 C 594.48765,90.344709 578.63914,112.24114 566.58606,123.95821 C 564.06373,126.41022 562.00000,129.00495 562.00000,129.72428 C 562.00000,130.77589 567.32762,130.98001 589.19092,130.76607 L 616.38183,130.50000 L 621.71531,118.00000 z "
       style="fill:#020202"
       id="path1428" />
    <path
       id="path1516"
       d="M 617.64035,257.22710 C 617.37579,256.79902 618.70637,251.34600 620.59719,245.10927 C 624.65702,231.71823 628.47278,213.43378 630.11532,199.50000 C 630.76368,194.00000 631.60804,188.89339 631.99168,188.15199 C 632.49803,187.17343 636.56531,189.71999 646.83158,197.44339 C 654.60988,203.29507 661.47611,209.02109 662.08985,210.16789 C 663.71670,213.20769 661.85647,216.57871 658.14224,217.32155 C 655.75827,217.79835 653.56002,220.01485 647.83553,227.71380 C 640.47606,237.61168 624.33587,254.68921 620.31069,256.83714 C 619.10657,257.47969 617.90492,257.65517 617.64035,257.22710 z "
       style="fill:#020202" />
    <path
       id="path1514"
       d="M 559.64372,251.93439 C 556.60333,249.54282 554.84944,244.07969 552.44132,229.50000 C 550.66695,218.75722 546.93208,205.78917 543.88463,199.78984 C 542.84808,197.74925 542.00000,195.32787 542.00000,194.40900 C 542.00000,191.95954 547.39765,193.08975 556.41652,197.42765 C 571.04912,204.46565 579.30374,216.49013 579.41522,230.92978 C 579.48713,240.24300 577.21632,246.72488 572.40029,250.95340 C 568.23202,254.61319 563.51083,254.97626 559.64372,251.93439 z "
       style="fill:#020202" />
  </g>
  <g
     id="g1535">
    <path
       d="M 699.00800,283.06733 C 693.84948,281.71410 693.80772,281.24052 694.40760,230.89812 C 694.71302,205.26708 694.66009,183.99342 694.28999,183.62332 C 693.91988,183.25321 690.37869,186.44906 686.42068,190.72520 C 682.46267,195.00134 678.90271,198.19138 678.50966,197.81417 C 678.11660,197.43697 679.41245,192.93697 681.38931,187.81417 C 686.17876,175.40290 689.23457,165.08436 694.51288,143.50000 C 698.67963,126.46107 702.98182,104.25824 703.01531,99.620473 C 703.02373,98.454213 703.43776,96.856651 703.93537,96.070335 C 704.94182,94.479955 704.76477,94.365517 722.25000,107.90813 C 733.48276,116.60809 734.25440,118.49449 728.62792,123.50000 C 726.72318,125.19452 723.71185,129.84436 721.70785,134.18538 L 718.15996,141.87075 L 721.07998,144.92628 C 724.63790,148.64929 724.67646,149.40736 721.50000,153.18237 L 719.00000,156.15345 L 719.00000,196.77673 C 719.00000,223.05451 719.34295,237.05705 719.97115,236.42885 C 722.31544,234.08456 725.65028,195.36182 726.63775,159.01912 C 727.16400,139.65120 727.60799,134.00000 728.60338,134.00000 C 729.31058,134.00000 733.34531,135.57500 737.56944,137.50000 C 741.79358,139.42500 745.65344,141.00000 746.14691,141.00000 C 746.65431,141.00000 746.92592,132.85359 746.77207,122.25000 L 746.50000,103.50000 L 736.22196,103.50000 C 725.21396,103.50000 724.04692,102.98949 724.01531,98.160291 C 724.00003,95.825112 724.02178,95.821240 735.25000,96.160291 L 746.50000,96.500000 L 746.42116,66.750000 C 746.37779,50.387500 746.60279,36.992770 746.92116,36.983934 C 747.23952,36.975097 753.75958,38.646547 761.41018,40.698266 C 774.27522,44.148378 775.46041,44.666017 777.18422,47.587653 C 778.40570,49.657905 780.61212,51.343960 783.58621,52.479774 C 786.08219,53.432998 790.17038,55.983729 792.67108,58.148065 C 797.14348,62.018903 797.33292,62.078457 804.26141,61.791612 L 811.30503,61.500000 L 813.67244,55.000000 C 819.38670,39.310844 819.09948,39.871908 821.25174,40.194086 C 823.51053,40.532210 839.89580,62.368141 839.96134,65.127555 C 840.04087,68.475749 837.53988,68.951844 818.42490,69.227292 L 799.50000,69.500000 L 799.23495,73.000000 C 799.08918,74.925000 798.50056,78.490517 797.92690,80.923370 C 796.90931,85.238947 796.99691,85.512150 801.52170,92.134408 C 808.72426,102.67572 808.47628,102.89007 788.69038,103.22551 L 772.50000,103.50000 L 772.22275,117.71570 L 771.94551,131.93140 L 777.85208,137.93039 C 792.66372,152.97379 799.94401,170.78359 799.98264,192.06850 C 800.00340,203.51295 798.00860,211.14524 793.93092,215.22292 C 791.50909,217.64475 790.35707,218.06650 786.86849,217.80840 C 783.67222,217.57193 782.21575,216.84899 780.62401,214.70886 C 778.71970,212.14848 778.49255,210.04028 777.87648,189.20886 C 777.50711,176.71899 776.91052,164.25000 776.55073,161.50000 C 775.11611,150.53470 773.73457,142.44949 773.13328,141.50000 C 772.78498,140.95000 772.27500,170.05153 772.00000,206.17008 L 771.50000,271.84015 L 769.00000,274.54895 C 763.79731,280.18618 752.18948,282.07683 748.41161,277.90233 C 746.58914,275.88853 746.52397,273.63968 746.78138,221.65233 C 746.94208,189.19587 746.68845,168.10097 746.14833,169.00000 C 745.65268,169.82500 744.47796,174.77500 743.53785,180.00000 C 739.19211,204.15297 732.24611,225.96106 723.51408,242.86787 L 719.00000,251.60797 L 719.00000,262.35364 C 719.00000,269.86104 718.55619,273.95756 717.52728,275.94725 C 715.14622,280.55171 704.71150,284.56353 699.00800,283.06733 z M 776.71121,96.199642 C 778.91259,94.800652 781.05441,88.275873 780.12569,85.797832 C 779.65205,84.534024 778.95129,80.350000 778.56846,76.500000 C 777.70963,67.863113 775.20612,58.415955 773.37301,56.894607 C 772.21680,55.935037 772.00000,58.906126 772.00000,75.710889 C 772.00000,86.686567 772.30000,95.966667 772.66667,96.333333 C 773.54349,97.210158 775.20767,97.155149 776.71121,96.199642 z "
       style="fill:#020202"
       id="path1442" />
    <path
       id="path1430"
       d="M 796.61193,279.88101 C 796.32161,278.02146 795.82098,274.02500 795.49940,271.00000 C 794.41955,260.84198 790.11732,251.14521 781.43446,239.29911 C 779.08337,236.09149 780.27529,235.19876 785.71438,236.09352 C 788.34647,236.52651 792.56776,236.90760 795.09501,236.94039 C 803.50051,237.04943 803.05442,240.16497 802.75943,183.41084 L 802.50000,133.50000 L 795.70062,133.36729 C 791.96097,133.29430 788.70316,133.03649 788.46104,132.79437 C 788.21893,132.55226 787.73775,130.93876 787.39176,129.20881 L 786.76269,126.06346 L 799.08797,125.78173 L 811.41324,125.50000 L 815.62526,114.70049 C 819.77147,104.06974 821.43980,101.00000 823.07118,101.00000 C 824.16601,101.00000 843.00000,127.96917 843.00000,129.53691 C 843.00000,131.79733 840.45943,132.88587 834.46541,133.19367 L 828.50000,133.50000 L 827.98896,197.00000 C 827.48333,259.82859 827.45428,260.55870 825.24139,266.05148 C 821.48570,275.37377 813.13157,281.36804 802.06890,282.67825 L 797.13978,283.26203 L 796.61193,279.88101 z "
       style="fill:#020202" />
    <path
       id="path1416"
       d="M 686.00000,101.45300 C 686.00000,101.15215 687.74873,95.189655 689.88606,88.203003 C 693.77588,75.487723 697.71708,58.861731 700.06809,45.250000 C 700.75681,41.262500 701.81714,38.000000 702.42439,38.000000 C 703.03164,38.000000 709.59707,42.855934 717.01424,48.790964 C 728.85908,58.268901 730.50000,59.941978 730.50000,62.540964 C 730.50000,65.009158 729.95007,65.677751 727.18476,66.571570 C 725.00644,67.275658 722.48256,69.504755 719.82518,73.071570 C 717.60079,76.057207 713.24265,81.141949 710.14042,84.370999 C 701.07691,93.805024 686.00000,104.47360 686.00000,101.45300 z "
       style="fill:#020202" />
  </g>
  <path
     id="text1365"
     d="M 64.788641,328.25115 L 64.788641,310.20855 L 61.892915,310.20855 L 61.892915,305.97633 L 81.680373,305.97633 L 81.680373,313.95814 L 76.631416,313.95814 L 76.631416,310.50555 L 69.837598,310.50555 L 69.837598,317.29936 L 77.522408,317.29936 L 77.522408,321.19746 L 69.837598,321.19746 L 69.837598,328.25115 L 72.733324,328.25115 L 72.733324,332.48336 L 61.892915,332.48336 L 61.892915,328.25115 L 64.788641,328.25115"
     style="font-size:37.124687;font-style:normal;font-variant:normal;font-weight:bold;font-stretch:normal;fill:#000000;fill-opacity:1.0000000;stroke:none;stroke-width:1.0000000px;stroke-linecap:butt;stroke-linejoin:miter;stroke-opacity:1.0000000;font-family:ITC Lubalin Graph Std Book;text-anchor:start;writing-mode:lr-tb" />
  <path
     id="path1406"
     d="M 123.83077,305.97633 L 134.15144,305.97633 L 134.15144,310.20855 L 131.29283,310.20855 L 131.29283,323.35069 C 131.29281,324.86043 131.11956,326.15980 130.77309,327.24878 C 130.42657,328.33777 129.79545,329.36489 128.87973,330.33013 C 127.17198,332.11211 124.83312,333.00311 121.86316,333.00311 C 118.96743,333.00311 116.69045,332.18636 115.03222,330.55288 C 114.01748,329.56289 113.32448,328.48627 112.95324,327.32303 C 112.58199,326.15980 112.39637,324.78618 112.39637,323.20219 L 112.39637,310.20855 L 109.53777,310.20855 L 109.53777,305.97633 L 119.85843,305.97633 L 119.85843,310.20855 L 117.44533,310.20855 L 117.44533,322.68244 C 117.44532,324.36544 117.70519,325.60293 118.22495,326.39491 C 119.04168,327.63241 120.25442,328.25115 121.86316,328.25115 C 123.29864,328.25115 124.43713,327.71903 125.27863,326.65478 C 125.92211,325.81330 126.24386,324.48919 126.24388,322.68244 L 126.24388,310.20855 L 123.83077,310.20855 L 123.83077,305.97633"
     style="font-size:37.124687;font-style:normal;font-variant:normal;font-weight:bold;font-stretch:normal;fill:#000000;fill-opacity:1.0000000;stroke:none;stroke-width:1.0000000px;stroke-linecap:butt;stroke-linejoin:miter;stroke-opacity:1.0000000;font-family:ITC Lubalin Graph Std Book;text-anchor:start;writing-mode:lr-tb" />
  <path
     id="path1404"
     d="M 164.10484,332.48336 L 164.10484,328.25115 L 167.00057,328.25115 L 167.00057,310.20855 L 164.10484,310.20855 L 164.10484,305.97633 L 174.90812,305.97633 L 174.90812,310.20855 L 172.04952,310.20855 L 172.04952,327.95415 L 178.39785,327.95415 L 178.39785,324.46443 L 183.44680,324.46443 L 183.44680,332.48336 L 164.10484,332.48336"
     style="font-size:37.124687;font-style:normal;font-variant:normal;font-weight:bold;font-stretch:normal;fill:#000000;fill-opacity:1.0000000;stroke:none;stroke-width:1.0000000px;stroke-linecap:butt;stroke-linejoin:miter;stroke-opacity:1.0000000;font-family:ITC Lubalin Graph Std Book;text-anchor:start;writing-mode:lr-tb" />
  <path
     id="path1402"
     d="M 213.08021,332.48336 L 213.08021,328.25115 L 215.97593,328.25115 L 215.97593,310.20855 L 213.08021,310.20855 L 213.08021,305.97633 L 223.88349,305.97633 L 223.88349,310.20855 L 221.02489,310.20855 L 221.02489,327.95415 L 227.37321,327.95415 L 227.37321,324.46443 L 232.42217,324.46443 L 232.42217,332.48336 L 213.08021,332.48336"
     style="font-size:37.124687;font-style:normal;font-variant:normal;font-weight:bold;font-stretch:normal;fill:#000000;fill-opacity:1.0000000;stroke:none;stroke-width:1.0000000px;stroke-linecap:butt;stroke-linejoin:miter;stroke-opacity:1.0000000;font-family:ITC Lubalin Graph Std Book;text-anchor:start;writing-mode:lr-tb" />
  <path
     id="path1400"
     d="M 292.18795,310.20855 L 292.18795,328.25115 L 295.08368,328.25115 L 295.08368,332.48336 L 284.28039,332.48336 L 284.28039,328.25115 L 287.13899,328.25115 L 287.13899,312.84440 L 279.82543,332.48336 L 276.26146,332.48336 L 268.72515,312.84440 L 268.72515,328.25115 L 271.80650,328.25115 L 271.80650,332.48336 L 260.78047,332.48336 L 260.78047,328.25115 L 263.67619,328.25115 L 263.67619,310.20855 L 260.78047,310.20855 L 260.78047,305.97633 L 270.72988,305.97633 L 277.93207,324.68718 L 285.13426,305.97633 L 295.08368,305.97633 L 295.08368,310.20855 L 292.18795,310.20855"
     style="font-size:37.124687;font-style:normal;font-variant:normal;font-weight:bold;font-stretch:normal;fill:#000000;fill-opacity:1.0000000;stroke:none;stroke-width:1.0000000px;stroke-linecap:butt;stroke-linejoin:miter;stroke-opacity:1.0000000;font-family:ITC Lubalin Graph Std Book;text-anchor:start;writing-mode:lr-tb" />
  <path
     id="path1398"
     d="M 324.69620,332.48336 L 324.69620,328.25115 L 327.59193,328.25115 L 327.59193,310.20855 L 324.69620,310.20855 L 324.69620,305.97633 L 344.33516,305.97633 L 344.33516,313.95814 L 339.28620,313.95814 L 339.28620,310.50555 L 332.64088,310.50555 L 332.64088,317.11374 L 340.36282,317.11374 L 340.36282,321.04896 L 332.64088,321.04896 L 332.64088,328.06552 L 339.28620,328.06552 L 339.28620,324.46443 L 344.33516,324.46443 L 344.33516,332.48336 L 324.69620,332.48336"
     style="font-size:37.124687;font-style:normal;font-variant:normal;font-weight:bold;font-stretch:normal;fill:#000000;fill-opacity:1.0000000;stroke:none;stroke-width:1.0000000px;stroke-linecap:butt;stroke-linejoin:miter;stroke-opacity:1.0000000;font-family:ITC Lubalin Graph Std Book;text-anchor:start;writing-mode:lr-tb" />
  <path
     id="path1396"
     d="M 387.27893,310.46842 L 387.27893,328.25115 L 390.17465,328.25115 L 390.17465,332.48336 L 379.33424,332.48336 L 379.33424,328.25115 L 382.22997,328.25115 L 382.22997,310.46842 L 378.33188,310.46842 L 378.33188,314.32939 L 374.32241,314.32939 L 374.32241,305.97633 L 395.18648,305.97633 L 395.18648,314.32939 L 391.17702,314.32939 L 391.17702,310.46842 L 387.27893,310.46842"
     style="font-size:37.124687;font-style:normal;font-variant:normal;font-weight:bold;font-stretch:normal;fill:#000000;fill-opacity:1.0000000;stroke:none;stroke-width:1.0000000px;stroke-linecap:butt;stroke-linejoin:miter;stroke-opacity:1.0000000;font-family:ITC Lubalin Graph Std Book;text-anchor:start;writing-mode:lr-tb" />
  <path
     d="M 438.29699,332.48336 L 438.29699,328.77089 L 441.22984,328.77089 L 439.67060,324.79855 L 430.35230,324.79855 L 428.83019,328.77089 L 431.68879,328.77089 L 431.68879,332.48336 L 420.88551,332.48336 L 420.88551,328.25115 L 423.70699,328.25115 L 431.42892,310.20855 L 428.49607,310.20855 L 428.49607,305.97633 L 437.36887,305.97633 L 446.65004,328.25115 L 449.47152,328.25115 L 449.47152,332.48336 L 438.29699,332.48336 M 438.40836,320.90046 L 435.06714,311.80491 L 435.03002,311.80491 L 431.65167,320.90046 L 438.40836,320.90046"
     style="font-size:37.124687;font-style:normal;font-variant:normal;font-weight:bold;font-stretch:normal;fill:#000000;fill-opacity:1.0000000;stroke:none;stroke-width:1.0000000px;stroke-linecap:butt;stroke-linejoin:miter;stroke-opacity:1.0000000;font-family:ITC Lubalin Graph Std Book;text-anchor:start;writing-mode:lr-tb"
     id="path1394" />
  <path
     id="path1390"
     d="M 478.61128,332.48336 L 478.61128,328.25115 L 481.50701,328.25115 L 481.50701,310.20855 L 478.61128,310.20855 L 478.61128,305.97633 L 489.41457,305.97633 L 489.41457,310.20855 L 486.55596,310.20855 L 486.55596,327.95415 L 492.90429,327.95415 L 492.90429,324.46443 L 497.95324,324.46443 L 497.95324,332.48336 L 478.61128,332.48336"
     style="font-size:37.124687;font-style:normal;font-variant:normal;font-weight:bold;font-stretch:normal;fill:#000000;fill-opacity:1.0000000;stroke:none;stroke-width:1.0000000px;stroke-linecap:butt;stroke-linejoin:miter;stroke-opacity:1.0000000;font-family:ITC Lubalin Graph Std Book;text-anchor:start;writing-mode:lr-tb" />
  <path
     d="M 570.15390,332.48336 L 570.15390,328.77089 L 573.08675,328.77089 L 571.52751,324.79855 L 562.20921,324.79855 L 560.68710,328.77089 L 563.54570,328.77089 L 563.54570,332.48336 L 552.74242,332.48336 L 552.74242,328.25115 L 555.56389,328.25115 L 563.28583,310.20855 L 560.35298,310.20855 L 560.35298,305.97633 L 569.22578,305.97633 L 578.50695,328.25115 L 581.32843,328.25115 L 581.32843,332.48336 L 570.15390,332.48336 M 570.26527,320.90046 L 566.92405,311.80491 L 566.88692,311.80491 L 563.50858,320.90046 L 570.26527,320.90046"
     style="font-size:37.124687;font-style:normal;font-variant:normal;font-weight:bold;font-stretch:normal;fill:#000000;fill-opacity:1.0000000;stroke:none;stroke-width:1.0000000px;stroke-linecap:butt;stroke-linejoin:miter;stroke-opacity:1.0000000;font-family:ITC Lubalin Graph Std Book;text-anchor:start;writing-mode:lr-tb"
     id="path1388" />
  <path
     id="path1384"
     d="M 609.34158,332.48336 L 609.34158,328.25115 L 612.23731,328.25115 L 612.23731,310.20855 L 609.34158,310.20855 L 609.34158,305.97633 L 620.14486,305.97633 L 620.14486,310.20855 L 617.28626,310.20855 L 617.28626,327.95415 L 623.63458,327.95415 L 623.63458,324.46443 L 628.68354,324.46443 L 628.68354,332.48336 L 609.34158,332.48336"
     style="font-size:37.124687;font-style:normal;font-variant:normal;font-weight:bold;font-stretch:normal;fill:#000000;fill-opacity:1.0000000;stroke:none;stroke-width:1.0000000px;stroke-linecap:butt;stroke-linejoin:miter;stroke-opacity:1.0000000;font-family:ITC Lubalin Graph Std Book;text-anchor:start;writing-mode:lr-tb" />
  <path
     id="path1382"
     d="M 684.15573,314.32939 L 679.32952,314.32939 C 678.61176,313.09192 677.57227,312.11430 676.21105,311.39654 C 674.87454,310.65407 673.47618,310.28282 672.01596,310.28280 C 669.51622,310.28282 667.43724,311.12431 665.77901,312.80728 C 664.14552,314.46553 663.32877,316.54451 663.32878,319.04422 C 663.32877,321.42021 664.17027,323.47445 665.85326,325.20692 C 667.53624,326.91466 669.56572,327.76853 671.94171,327.76853 C 673.47618,327.76853 674.89929,327.42203 676.21105,326.72903 C 677.52277,326.01130 678.58701,325.02131 679.40377,323.75906 L 684.86110,323.75906 C 683.99483,326.45679 682.33660,328.67190 679.88639,330.40438 C 677.46089,332.13686 674.82504,333.00311 671.97883,333.00311 C 670.19683,333.00311 668.43960,332.64423 666.70713,331.92649 C 664.99938,331.18400 663.51440,330.18163 662.25216,328.91939 C 659.57919,326.19692 658.24270,322.89283 658.24270,319.00710 C 658.24270,315.26990 659.56681,312.05243 662.21504,309.35468 C 664.86326,306.63223 668.05598,305.27099 671.79321,305.27096 C 675.15916,305.27099 677.89401,306.35998 679.99777,308.53794 L 679.99777,305.86496 L 684.15573,305.86496 L 684.15573,314.32939"
     style="font-size:37.124687;font-style:normal;font-variant:normal;font-weight:bold;font-stretch:normal;fill:#000000;fill-opacity:1.0000000;stroke:none;stroke-width:1.0000000px;stroke-linecap:butt;stroke-linejoin:miter;stroke-opacity:1.0000000;font-family:ITC Lubalin Graph Std Book;text-anchor:start;writing-mode:lr-tb" />
  <path
     id="path1380"
     d="M 731.71561,316.59399 L 731.71561,310.20855 L 728.85701,310.20855 L 728.85701,305.97633 L 739.62317,305.97633 L 739.62317,310.20855 L 736.76457,310.20855 L 736.76457,328.25115 L 739.62317,328.25115 L 739.62317,332.48336 L 728.85701,332.48336 L 728.85701,328.25115 L 731.71561,328.25115 L 731.71561,321.64295 L 721.50632,321.64295 L 721.50632,328.25115 L 724.36492,328.25115 L 724.36492,332.48336 L 713.56164,332.48336 L 713.56164,328.25115 L 716.45736,328.25115 L 716.45736,310.20855 L 713.56164,310.20855 L 713.56164,305.97633 L 724.36492,305.97633 L 724.36492,310.20855 L 721.50632,310.20855 L 721.50632,316.59399 L 731.71561,316.59399"
     style="font-size:37.124687;font-style:normal;font-variant:normal;font-weight:bold;font-stretch:normal;fill:#000000;fill-opacity:1.0000000;stroke:none;stroke-width:1.0000000px;stroke-linecap:butt;stroke-linejoin:miter;stroke-opacity:1.0000000;font-family:ITC Lubalin Graph Std Book;text-anchor:start;writing-mode:lr-tb" />
  <path
     id="path1378"
     d="M 769.13534,332.48336 L 769.13534,328.25115 L 772.03107,328.25115 L 772.03107,310.20855 L 769.13534,310.20855 L 769.13534,305.97633 L 788.77430,305.97633 L 788.77430,313.95814 L 783.72534,313.95814 L 783.72534,310.50555 L 777.08002,310.50555 L 777.08002,317.11374 L 784.80196,317.11374 L 784.80196,321.04896 L 777.08002,321.04896 L 777.08002,328.06552 L 783.72534,328.06552 L 783.72534,324.46443 L 788.77430,324.46443 L 788.77430,332.48336 L 769.13534,332.48336"
     style="font-size:37.124687;font-style:normal;font-variant:normal;font-weight:bold;font-stretch:normal;fill:#000000;fill-opacity:1.0000000;stroke:none;stroke-width:1.0000000px;stroke-linecap:butt;stroke-linejoin:miter;stroke-opacity:1.0000000;font-family:ITC Lubalin Graph Std Book;text-anchor:start;writing-mode:lr-tb" />
  <path
     id="path1376"
     d="M 850.09478,310.20855 L 850.09478,328.25115 L 852.99051,328.25115 L 852.99051,332.48336 L 842.18723,332.48336 L 842.18723,328.25115 L 845.04583,328.25115 L 845.04583,312.84440 L 837.73226,332.48336 L 834.16829,332.48336 L 826.63198,312.84440 L 826.63198,328.25115 L 829.71333,328.25115 L 829.71333,332.48336 L 818.68730,332.48336 L 818.68730,328.25115 L 821.58303,328.25115 L 821.58303,310.20855 L 818.68730,310.20855 L 818.68730,305.97633 L 828.63672,305.97633 L 835.83891,324.68718 L 843.04109,305.97633 L 852.99051,305.97633 L 852.99051,310.20855 L 850.09478,310.20855"
     style="font-size:37.124687;font-style:normal;font-variant:normal;font-weight:bold;font-stretch:normal;fill:#000000;fill-opacity:1.0000000;stroke:none;stroke-width:1.0000000px;stroke-linecap:butt;stroke-linejoin:miter;stroke-opacity:1.0000000;font-family:ITC Lubalin Graph Std Book;text-anchor:start;writing-mode:lr-tb" />
  <path
     id="path1374"
     d="M 890.54772,310.20855 L 890.54772,328.25115 L 893.40632,328.25115 L 893.40632,332.48336 L 882.60303,332.48336 L 882.60303,328.25115 L 885.49876,328.25115 L 885.49876,310.20855 L 882.60303,310.20855 L 882.60303,305.97633 L 893.40632,305.97633 L 893.40632,310.20855 L 890.54772,310.20855"
     style="font-size:37.124687;font-style:normal;font-variant:normal;font-weight:bold;font-stretch:normal;fill:#000000;fill-opacity:1.0000000;stroke:none;stroke-width:1.0000000px;stroke-linecap:butt;stroke-linejoin:miter;stroke-opacity:1.0000000;font-family:ITC Lubalin Graph Std Book;text-anchor:start;writing-mode:lr-tb" />
  <path
     id="path1372"
     d="M 923.49624,324.61293 L 928.09970,324.61293 C 928.09970,325.75142 928.45857,326.71666 929.17632,327.50865 C 929.89405,328.27590 930.84692,328.65952 932.03492,328.65952 C 933.14865,328.65952 934.07676,328.33777 934.81927,327.69428 C 935.56175,327.02604 935.93300,326.13505 935.93301,325.02130 C 935.93300,324.52631 935.82162,324.08081 935.59889,323.68481 C 935.40088,323.26407 935.17813,322.94233 934.93064,322.71957 C 934.70788,322.47208 934.33664,322.23696 933.81690,322.01420 C 933.32190,321.76671 932.93828,321.60584 932.66604,321.53158 C 932.41853,321.43259 931.99778,321.29647 931.40380,321.12321 C 930.58705,320.87572 929.95593,320.69010 929.51044,320.56634 C 929.06494,320.41785 928.53282,320.19510 927.91408,319.89809 C 927.29533,319.60111 926.72608,319.25461 926.20634,318.85860 C 924.27586,317.42313 923.31062,315.49265 923.31062,313.06715 C 923.31062,310.91394 924.10261,309.10721 925.68660,307.64694 C 927.27058,306.16198 929.15156,305.41949 931.32955,305.41946 C 933.43327,305.41949 935.00488,306.10011 936.04438,307.46132 L 936.04438,305.97633 L 939.90535,305.97633 L 939.90535,313.10427 L 935.37614,313.10427 C 935.35138,312.11430 935.01726,311.29756 934.37377,310.65404 C 933.73027,309.98582 932.91353,309.65170 931.92354,309.65168 C 930.90879,309.65170 930.05493,309.94870 929.36194,310.54267 C 928.66894,311.13669 928.32244,311.94105 928.32245,312.95578 C 928.32244,313.57454 928.43382,314.10666 928.65657,314.55214 C 928.87931,314.97290 929.26294,315.33177 929.80744,315.62875 C 930.35192,315.90102 930.77267,316.09901 931.06968,316.22275 C 931.36667,316.32176 931.89879,316.48264 932.66604,316.70537 C 935.26475,317.42313 937.15811,318.22749 938.34612,319.11847 C 940.10333,320.52922 940.98195,322.38546 940.98197,324.68718 C 940.98195,327.08791 940.18996,329.08027 938.60599,330.66425 C 937.02199,332.22349 935.01726,333.00311 932.59179,333.00311 C 930.41380,333.00311 928.71844,332.24824 927.50571,330.73850 L 927.50571,332.48336 L 923.49624,332.48336 L 923.49624,324.61293"
     style="font-size:37.124687;font-style:normal;font-variant:normal;font-weight:bold;font-stretch:normal;fill:#000000;fill-opacity:1.0000000;stroke:none;stroke-width:1.0000000px;stroke-linecap:butt;stroke-linejoin:miter;stroke-opacity:1.0000000;font-family:ITC Lubalin Graph Std Book;text-anchor:start;writing-mode:lr-tb" />
  <path
     id="path1370"
     d="M 983.71981,310.46842 L 983.71981,328.25115 L 986.61553,328.25115 L 986.61553,332.48336 L 975.77512,332.48336 L 975.77512,328.25115 L 978.67085,328.25115 L 978.67085,310.46842 L 974.77276,310.46842 L 974.77276,314.32939 L 970.76329,314.32939 L 970.76329,305.97633 L 991.62737,305.97633 L 991.62737,314.32939 L 987.61790,314.32939 L 987.61790,310.46842 L 983.71981,310.46842"
     style="font-size:37.124687;font-style:normal;font-variant:normal;font-weight:bold;font-stretch:normal;fill:#000000;fill-opacity:1.0000000;stroke:none;stroke-width:1.0000000px;stroke-linecap:butt;stroke-linejoin:miter;stroke-opacity:1.0000000;font-family:ITC Lubalin Graph Std Book;text-anchor:start;writing-mode:lr-tb" />
</svg>
