<?xml version="1.0" encoding="UTF-8" standalone="no"?>
<!-- Created with Inkscape (http://www.inkscape.org/) -->

<svg
   xmlns:dc="http://purl.org/dc/elements/1.1/"
   xmlns:cc="http://creativecommons.org/ns#"
   xmlns:rdf="http://www.w3.org/1999/02/22-rdf-syntax-ns#"
   xmlns:svg="http://www.w3.org/2000/svg"
   xmlns="http://www.w3.org/2000/svg"
   xmlns:xlink="http://www.w3.org/1999/xlink"
   xmlns:sodipodi="http://sodipodi.sourceforge.net/DTD/sodipodi-0.dtd"
   xmlns:inkscape="http://www.inkscape.org/namespaces/inkscape"
   version="1.0"
   width="1024"
   height="364"
   id="svg2"
   inkscape:version="0.47 r22583"
   sodipodi:docname="Logo_FairyTail.svg">
  <metadata
     id="metadata41">
    <rdf:RDF>
      <cc:Work
         rdf:about="">
        <dc:format>image/svg+xml</dc:format>
        <dc:type
           rdf:resource="http://purl.org/dc/dcmitype/StillImage" />
      </cc:Work>
    </rdf:RDF>
  </metadata>
  <sodipodi:namedview
     pagecolor="#ffffff"
     bordercolor="#666666"
     borderopacity="1"
     objecttolerance="10"
     gridtolerance="10"
     guidetolerance="10"
     inkscape:pageopacity="0"
     inkscape:pageshadow="2"
     inkscape:window-width="640"
     inkscape:window-height="480"
     id="namedview39"
     showgrid="false"
     inkscape:zoom="0.87890625"
     inkscape:cx="626.88688"
     inkscape:cy="207.08639"
     inkscape:current-layer="svg2" />
  <defs
     id="defs4">
    <linearGradient
       id="linearGradient3651">
      <stop
         style="stop-color:#e1e1e1;stop-opacity:1;"
         offset="0"
         id="stop3653" />
      <stop
         id="stop3677"
         offset="0.1"
         style="stop-color:#afafaf;stop-opacity:1;" />
      <stop
         id="stop3675"
         offset="0.2"
         style="stop-color:#e1e1e1;stop-opacity:1;" />
      <stop
         id="stop3673"
         offset="0.30000001"
         style="stop-color:#afafaf;stop-opacity:1;" />
      <stop
         id="stop3669"
         offset="0.40000001"
         style="stop-color:#e1e1e1;stop-opacity:1;" />
      <stop
         style="stop-color:#c8c8c8;stop-opacity:1;"
         offset="0.5"
         id="stop3671" />
      <stop
         id="stop3665"
         offset="0.60000002"
         style="stop-color:#afafaf;stop-opacity:1;" />
      <stop
         id="stop3661"
         offset="0.69999999"
         style="stop-color:#e1e1e1;stop-opacity:1;" />
      <stop
         style="stop-color:#afafaf;stop-opacity:1;"
         offset="0.80000001"
         id="stop3663" />
      <stop
         id="stop3667"
         offset="0.875"
         style="stop-color:#e1e1e1;stop-opacity:1;" />
      <stop
         style="stop-color:#c8c8c8;stop-opacity:1;"
         offset="1"
         id="stop3655" />
    </linearGradient>
    <linearGradient
       id="linearGradient3173">
      <stop
         style="stop-color: rgb(0, 0, 255); stop-opacity: 1;"
         offset="0"
         id="stop3175" />
      <stop
         style="stop-color: rgb(0, 0, 223); stop-opacity: 1;"
         offset="1"
         id="stop3177" />
    </linearGradient>
    <linearGradient
       id="linearGradient3164">
      <stop
         style="stop-color: rgb(255, 1, 1); stop-opacity: 1;"
         offset="0"
         id="stop3166" />
      <stop
         style="stop-color: rgb(255, 255, 0); stop-opacity: 1;"
         offset="1"
         id="stop3168" />
    </linearGradient>
    <linearGradient
       inkscape:collect="always"
       xlink:href="#linearGradient3173"
       id="linearGradient2862"
       gradientUnits="userSpaceOnUse"
       x1="423.44089"
       y1="30.510777"
       x2="423.44089"
       y2="347.37885" />
    <linearGradient
       inkscape:collect="always"
       xlink:href="#linearGradient3164"
       id="linearGradient2867"
       gradientUnits="userSpaceOnUse"
       x1="464.0802"
       y1="552.34045"
       x2="464.0802"
       y2="152.86815"
       gradientTransform="matrix(0.5,0,0,0.5,337,68)" />
    <linearGradient
       inkscape:collect="always"
       xlink:href="#linearGradient3173"
       id="linearGradient2873"
       gradientUnits="userSpaceOnUse"
       x1="423.44089"
       y1="30.510777"
       x2="423.44089"
       y2="347.37885"
       gradientTransform="translate(-2.2e-4,-2.3e-4)" />
    <linearGradient
       inkscape:collect="always"
       xlink:href="#linearGradient3651"
       id="linearGradient3659"
       x1="535.47845"
       y1="5.1444578"
       x2="535.47845"
       y2="358.8765"
       gradientUnits="userSpaceOnUse" />
  </defs>
  <g
     id="g2875">
    <path
       d="m 421.83366,92.652271 c 2.83056,0.06277 3.60937,3.673525 3.60937,6.375 l 0,49.812499 c -4.50101,0 -7.0625,-1.60976 -7.0625,-5.79688 l -0.17187,-45.609369 c 0.16572,-2.983105 1.19883,-4.83505 3.625,-4.78125 z M 599.91178,6.40227 c -32.99875,0.578775 -42.97895,28.79481 -41.75,44.000001 0.2064,2.553535 0.8402,8.58212 3,11.75 -13.2646,4.70112 -24.29575,5.937545 -36.0156,8.71875 -18.32175,4.347885 -31.50011,10.78125 -43.9844,10.78125 -9.69544,0 -20.73058,-3.40515 -33.08285,-6.671495 -7.97571,-2.109035 -19.48218,-3.969045 -28.71312,-6.74358 -20.3295,-6.11041 -38.50784,-11.98137 -54.86304,-11.98137 -26.0012,0 -49.86611,12.396445 -59.59099,12.396445 -7.25,0 -74.25,0 -74.25,0 l 0,12.75 c 0,0 -28.61613,-25.123945 -50.11611,-25.146445 -21.4383,-0.02244 -35.67511,13.68416 -40.38389,15.396445 l 0,-2.896445 c 0,0 -4.25,0 -9,0 -11.25277,0 -34.094625,-12.375 -58.796875,-12.375 -18.70225,0 -47.949745,13.021445 -57.203125,13.021445 -6,0 -8,0 -7.5,0 l 0,22.75 c 0,0 4.5,0 7.25,0 2.75,0 4.875,2.25 4.875,4.875 0,2.625 0,191.874999 0,194.624999 0,2.75 -0.689585,6.34375 -3.65625,6.34375 -2.966665,-10e-6 -7.96875,0 -7.96875,0 l 0,24.40625 82,0 0,-24.25 c 0,0 -3.75,0 -8,0 -4.25,0 -4.484375,-3.77669 -4.484375,-7.76563 0,-3.98895 0,-70.98437 0,-70.98437 2.5625,0.39084 7.6875,-0.0473 7.6875,4.4375 l 0,7.8125 24.296875,0 0,-66.5 15.5,0 c 0,0 0,123.25 0,126.5 0,3.25 -1,6.75 -4.5,6.75 -3.5,0 -7.5,0 -7.5,0 l 0,23.75 c 0,0 241.5,0 253,0 29.01171,0 51.21898,35.45312 112.73438,35.45312 25.08592,-10e-6 38.56577,-5.75248 49.31252,-11.54687 18.83635,-10.1562 23.36935,-23.90625 42.4531,-23.90625 21.25,0 261.25,0 270.25002,0 13.5,0 32.99885,12.25 60.25,12.25 19.25,0 42.25,-12.25 56.25,-12.25 4.75,0 7,0 7,0 l 0,-24.25 c 0,0 -4.25,0 -8.25,0 -4,0 -4.4375,-3.11931 -4.4375,-7.6875 0,-4.56818 0,-55.0625 0,-55.0625 4.16095,-1.78327 31.0139,-41.06688 34.9375,-71.25 2.48185,-19.09241 2.07165,-23.87833 1.5,-36 -0.68595,-14.54462 21.7742,-46.257994 28.25,-54.499999 0,0 -17.5,3.75 -28.5,9.5 -10.4155,5.44447 -24.1655,14.45585 -43.5,45.499999 -17.75,28.5 -20.21955,33.48535 -13,40 4.1076,3.70656 10.314,2.84521 14.1587,-0.004 2.70805,-2.00677 3.9423,-5.2734 8.0913,-8.49615 -13.69165,31.28063 -31.8432,48.1905 -51.5,60.25 l 0.25,-121.454499 c 0,-2.510565 0.6149,-5.795495 4.75,-5.795495 l 7.5,0 0,-23.75 -150.50002,0 0,11.75 c -10.76755,-7.77658 -28.0569,-23.76754 -50.5,-24.25 -18.624,-0.39723 -34.8128,11.77597 -37.28035,13.75 -11.4079,0.09825 -24.6363,-5.083335 -37.46965,-7.5 0,0 2.4026,-1.85424 2.75,-12.09835 0.7071,-20.851398 -13.77295,-44.901651 -41.75,-44.401651 z m -294.3125,85.906251 c 2.63175,0.104805 4.64063,3.00775 4.64063,5.125 l 0,194.031249 c 0,4.36742 -1.29482,6.60937 -4.46875,6.60937 -3.56748,0 -4.42188,-3.9888 -4.42188,-6.1875 l 0,-194.640619 c 0,-2.03993 1.32955,-5.053805 4.25,-4.9375 z m 231.39065,0.671875 c 1.6903,0 2.8281,3.924635 2.8281,5.515625 l 0,54.796869 27.40625,0 -0.17185,-12.48437 c -0.0747,-5.43091 4.0625,-15.98437 4.0625,-15.98437 l 0,168.12499 c 0,3.56761 -1.3496,5.125 -3.3594,5.125 -5.68075,0 -12.27685,0.97427 -18.3906,3.53125 -6.5642,2.74538 -14.01625,9.21803 -16.89065,11.84375 -6.1302,5.59987 -18.9779,13.55976 -20.9375,13.79688 -1.35585,0.16405 -2.46875,-2.12868 -2.46875,-4.25 0,-2.12131 -0.35935,-50.37654 -0.35935,-54.26563 0,-3.88907 1.5956,-15.02788 2.65625,-19.09375 1.0606,-4.06586 22.4531,-89.45312 22.4531,-89.45312 l 0,-60.843749 c 0,-2.828425 1.6112,-6.359375 3.1719,-6.359375 z m 302.42187,0.04687 c 2.97765,-0.09228 4.46875,3.27704 4.46875,7.203134 l 0,189.42186 c 0,4.15578 -0.2559,7.625 -5.09375,7.625 -4.24097,0 -4.62502,-3.6456 -4.62502,-8.125 l 0,-189.12499 c 0,-3.142399 1.53805,-6.884974 5.25002,-7.000004 z m -63.00002,15.875004 0,181.24999 c 0,5.22148 -0.9371,8 -4.75,8 -4.13225,0 -5,-3.88923 -5,-9.75 l 0,-171.74999 c 0,-6.64609 5.10625,-7.75 9.75,-7.75 z M 237.1774,109.9804 c 2.47488,0 5.65626,0 5.65625,0 l 0.53125,181.37499 c 0,0 -0.57222,7.0625 -5.46875,7.0625 -5.36645,0 -4.95312,-7.59375 -4.95312,-7.59375 0,0 0,-173.072 0,-175.54687 0,-2.47487 1.75949,-5.29687 4.23437,-5.29687 z m 392.23438,15.67187 c 0,0 3.25,5.94973 3.25,15.5 0,6.52429 0,12.5 0,12.5 l 26.25,0 0.5,138.5 c 0,3.29105 -1.85435,6.6661 -4.25,6 l -21.25,0 c -2.6644,0.12574 -5,-1.93693 -5,-7 l 0.5,-165.5 z M 427.9274,169.37102 c 2e-5,0 18.20589,70.71906 19.79688,76.90625 1.59098,6.18718 2.85937,11.84223 2.85937,16.96875 2e-5,5.12653 -0.3417,55.85288 -0.17187,59.57812 0.14644,3.21231 -0.92372,5.29198 -1.98438,5.46875 -1.06065,0.17678 -10.77329,-3.17769 -12.1875,-3.53125 -1.41423,-0.35353 -3.89154,-4.42249 -4.42187,-7.78125 -0.53033,-3.35875 -19.6299,-134.33885 -19.45313,-134.51562 l 15.5625,-13.09375 z"
       style="fill:url(#linearGradient3659);fill-opacity:1;fill-rule:evenodd;stroke:#020202;stroke-width:2.50000000000000000;stroke-linecap:butt;stroke-linejoin:miter;stroke-miterlimit:4;stroke-opacity:1;stroke-dasharray:none"
       id="path3462" />
    <path
       id="path2259"
       style="fill:#000e96;fill-opacity:1;fill-rule:evenodd;stroke:none"
       d="m 600.24978,17.34352 c -21.4752,0 -31.625,19.85744 -31.625,31.71875 3e-5,11.861308 8.5,20.59375 8.5,20.59375 l -39.5625,9.75 0,2.5 c 3.92555,0 12.34375,6.202275 12.34375,14.71875 l 0,45.9375 6.875,0 c -10e-6,-14.74027 1.79506,-32.14802 24.71875,-32.6875 l 0,181.90625 c 2e-5,5.83943 -3.76627,17.21875 -12.96875,17.21875 -16.73794,10e-6 -23.06462,6.69801 -30.96875,14.15625 -8.44158,7.96521 -22.47452,15.1875 -27.46875,15.1875 -4.99424,-1e-5 -11.375,-5.97971 -11.375,-15.46875 -10e-6,-9.48904 0.22509,-51.4476 0,-57.8125 -0.0553,-1.56378 0.73747,-10.65822 2.09375,-16.375 7.13736,-30.08563 22.25,-89.625 22.25,-89.625 2e-5,0 0.5,-54.81812 0.5,-59.6875 -10e-6,-7.78286 4.53392,-17.09375 12.125,-17.09375 l 0,-2.625 c -5.18962,0 -39.82994,12.59375 -54.9375,12.59375 -20.75791,2e-6 -49.83666,-12.34375 -56.6875,-12.34375 l 0,2.375 c 4.19726,1.124659 12,7.409011 12,16.59375 l 0,60.1875 c 1e-5,0 22.86098,86.89511 23.34375,89.625 0.37457,2.11805 1.90625,11.52203 1.90625,16.375 -3e-5,5.72575 0,58.8125 0,58.8125 -3e-5,7.75697 -6.51168,15.34375 -11.15625,15.34375 -7.63499,-1e-5 -17.87449,-4.68476 -20.34375,-5.875 -4.31456,-2.07969 -7.75101,-10.60125 -8.625,-17.09375 -0.87399,-6.49249 -20.21875,-138.09375 -20.21875,-138.09375 l 19.46875,-16.46875 -0.125,-2.125 c -5.6967,0 -12.59375,-6.70417 -12.59375,-16.125 l 0,-46.0625 c 0,-7.158824 6.50311,-15.59375 12.59375,-15.59375 l 0,-2.25 c -3.07618,0 -34.23889,-12.375 -54.9375,-12.375 -24.25738,0 -52.07004,12.25 -57.4375,12.25 l 0,2.25 c 3.61352,-10e-7 12.875,5.264164 12.875,17.09375 l 0,192.28125 c -10e-6,10.82615 -7.21023,18.09375 -12.25,18.09375 l -4.96875,0 c -6.62692,-1e-5 -12.25,-8.1253 -12.25,-16.09375 l 0,-195.90625 c 1e-5,-6.819792 5.76297,-15.59375 12.25,-15.59375 l 0,-2.125 -62.6875,0 0,2.5 c 5.32166,0.604782 12.84375,6.559016 12.84375,14.21875 l 0,195.15625 c 1e-5,13.9543 -9.79511,17.84375 -13.96875,17.84375 l -3.125,0 c -7.99839,-1e-5 -13.125,-8.46686 -13.125,-16.09375 l 0,-179.0625 c -0.33885,-9.74114 7.97701,-15.09375 12.5,-15.09375 l 0,-2.125 c -4.29426,10e-7 -13.52467,-9.665375 -25.59375,-18.15625 -8.68654,-6.111179 -18.60355,-11.861164 -30.34375,-11.8125 -13.50283,0.05596 -24.342,7.128476 -34.875,14.4375 -10.63473,7.379622 -17.8723,16.03125 -21.9375,16.03125 l 0,1.625 c 0,10e-7 12.875,5.10456 12.875,14.46875 0,9.36419 0,172.16875 0,179.6875 0,7.66248 -5.98282,16.34375 -12.125,16.34375 l 0,1.75 c 0,0 235.72884,0 244.46875,0 13.10164,0 24.05671,7.11795 41.59375,16.59375 13.65366,7.37748 42.28546,19.125 67.90625,19.125 22.04642,-1e-5 44.0384,-6.99851 60.84375,-20.875 12.32634,-10.17807 13.84472,-14.96875 34.3125,-14.96875 18.6035,0 262.5625,0 262.5625,0 l 0,-3.25 c -5.56657,-1e-5 -12.375,-7.08016 -12.375,-14.71875 l 0,-193.71875 c -10e-6,-6.194373 4.67633,-16.625 12.53125,-16.625 l 7.34375,0 c 4.08997,10e-7 11.09375,6.49137 11.09375,16.28125 l 0,194.0625 c -3e-5,9.80104 -9.69435,15.09375 -12.59375,15.09375 l 0,2.375 c 8.12035,-1e-5 33.71405,12.62502 56.6875,12.625 22.97323,-3e-5 45.5029,-12.125 54.8125,-12.125 l 0,-2.75 c -6.45503,-1e-5 -12.5387,-8.7898 -12.375,-16.8125 l 0,-61.34375 c 12.48464,-10.72472 31.22195,-46.08296 33.96875,-63.8125 2.74682,-17.72954 2.99985,-26.06654 2.875,-29.5625 -0.12482,-3.49596 -1.02465,-2.8714 -1,-9.25 0.0292,-7.72523 5.7482,-23.68029 12.46875,-33.46875 -18.76383,11.33132 -38.1732,41.10681 -51.125,66.375 2e-5,0 19.00665,-20.7176 24.75,-19.71875 5.74337,0.99885 4.5807,8.19219 3.78125,12.15625 -8.74664,43.37115 -54.1786,77.17634 -62.9375,77.90625 l 0,43.0625 c 3e-5,10e-6 1.8382,12.1875 -5.5625,12.1875 -7.40069,2e-5 -6.53125,-12.1875 -6.53125,-12.1875 l 0,-176.15625 c -10e-6,-6.313099 5.12,-14.9375 12.34375,-14.9375 l 0,-2.53125 -132.59375,0 0,2.625 c 5.09294,0.128625 15.125,4.377214 15.125,13.46875 l -0.375,195.375 c -10e-6,9.54308 -7.99154,16.875 -11.625,16.875 l -6.1875,0 c -6.60099,10e-6 -12.03125,-9.2167 -12.03125,-15.46875 l 0,-177.34375 c 10e-6,-4.176 3.4891,-16.0625 12.71875,-16.0625 l 0,-2.25 c -6.29227,-2e-6 -30.9891,-30.21875 -55.8125,-30.21875 -24.80894,0 -49.08086,29.96875 -56.0625,29.96875 l 0,2.25 c 5.61231,-3e-6 12.25,7.02994 12.25,15.21875 l 0,178.4375 c 3e-5,8.20459 -3.51137,15.84375 -15.09375,15.84375 l -19.375,0 c -9.36598,10e-6 -15.96875,-4.14894 -15.96875,-17.34375 l 0,-181.90625 c 12.22181,0 24.31813,8.68377 24.34375,33.1875 l 6.5,0 0,-45.8125 c 10e-6,-6.75947 5.44451,-14.718004 12.46875,-14.8125 l 0,-2.15625 -39.8125,-10.125 c 10e-6,3e-6 9.125,-8.482729 9.125,-20.59375 -3e-5,-13.71837 -9.74353,-31.96875 -31.21875,-31.96875 z m -0.375,19.46875 c 6.47854,0 11.71875,5.271478 11.71875,11.75 2e-5,6.478522 -5.24023,11.71875 -11.71875,11.71875 -6.47851,-10e-7 -11.75,-5.240228 -11.75,-11.71875 10e-6,-6.478523 5.27148,-11.75 11.75,-11.75 z M 75.09353,66.90602 c -25.841122,0.08901 -43.560336,12.25 -56.6875,12.25 l 0,2.5 c 4.195199,1.124104 12.25,6.69054 12.25,15.25 l 0,191 c 0,18.27426 -8.4954,21.5 -12.25,21.5 l 0,2.25 62.375,0 0,-2.75 c -4.325912,-1e-5 -12.53125,-4.04464 -12.53125,-21 l 0,-79.25 12.65625,0 c 7.274908,0 16,5.77608 16,12.25 l 2.5,0 0,-62 -2.5,0 c -2.201527,8.2162 -8.798255,12.25 -16,12.25 l -12.65625,0 0,-56 c -10e-7,-4.07677 0.438995,-10.75 5.65625,-10.75 5.113323,0 5.4375,6.3208 5.4375,10.75 l 0,39.75 38.8125,0 0,-59.25 c 0,-5.805036 7.30459,-14 12,-14 l 0,-2.5 c -15.28957,4e-6 -29.22137,-12.33901 -55.0625,-12.25 z m 404.9375,30.5 c 3.24626,0 5.50014,2.75576 5.625,7.75 0.12485,4.99423 -0.12501,62.09376 -0.125,62.09375 l -5.71875,33.375 -6.5,-33.375 0.5,-62.59375 c 0.041,-5.132612 2.97249,-7.25 6.21875,-7.25 z m -299.8125,6.71875 c 3.24626,0 5.50014,2.72451 5.625,7.71875 0.12486,4.99423 -0.125,58.9375 -0.125,58.9375 l -12.25,0 c 0.24972,0.24971 0.12543,-54.31841 0.5,-59.4375 0.37458,-5.11909 3.00375,-7.21875 6.25,-7.21875 z m 184.53125,0 c 3.24626,0 5.6392,3.97297 5.625,8.96875 l -0.125,43.9375 c -3.54961,5.5824 -8.1045,8.20522 -12.25,12 l 0.5,-57.6875 c 0.0445,-5.13258 3.00374,-7.21875 6.25,-7.21875 z m 348.53125,0.53125 c 3.24626,0 5.50014,2.72452 5.625,7.71875 l -0.125,58.9375 -12.21875,0 0.5,-59.4375 c 0.0432,-5.1326 2.9725,-7.21874 6.21875,-7.21875 z M 367.87478,205.87477 c -10e-6,0 12.00029,88.15942 12.25,90.90625 0.2497,2.74683 -5.75605,11.96875 -11,11.96875 -5.24394,-1e-5 -11,-11.22566 -11,-17.21875 0,-5.9931 0.25,-77.90625 0.25,-77.90625 l 9.5,-7.75 z m -194.40625,2.125 12.25,0 c 0,10e-6 0.24986,87.63077 0.125,92.625 -0.12485,4.99423 -2.37875,7.75 -5.625,7.75 -3.24625,0 -6.25,-2.11723 -6.25,-7.25 1e-5,-5.37461 -0.25029,-93.37471 -0.5,-93.125 z m 533.09375,0.59375 12.21875,0 0.125,91.34375 c -0.12486,4.99423 -2.37874,9.21875 -5.625,9.21875 -3.24624,-2e-5 -6.19128,-3.58604 -6.21875,-8.71875 l -0.5,-91.84375 z" />
  </g>
  <path
     id="path2415"
     style="fill:url(#linearGradient2867);fill-opacity:1;fill-rule:evenodd;stroke:#000000;stroke-width:2.5;stroke-linecap:round;stroke-linejoin:round;stroke-miterlimit:4;stroke-opacity:1;stroke-dasharray:none"
     d="m 503.5921,288.86587 -0.52049,26.0696 61.48015,-39.95182 c -40.64858,-6.59714 -33.27185,-26.44776 -28.48858,-37.917 -11.15208,-13.78736 -33.28205,1.3232 -43.71244,19.63149 -12.77561,-45.31678 2.65922,-77.28801 52.60272,-83.44979 4.18587,-0.51643 14.58091,-5.50431 18.35571,-15.70168 5.50015,22.45246 -7.22709,32.44187 -15.94476,42.39191 12.9604,-6.55416 23.117,-19.32279 23.19916,-40.79895 7.17809,9.35358 10.66315,36.89249 -15.32835,61.84759 8.89373,-6.43312 21.74998,-16.12097 24.53828,-36.35069 4.84007,-35.11573 19.54499,-38.61086 33.53337,-40.09122 -10.47135,6.59665 -13.27072,12.5793 -13.63532,30.08263 -0.67207,31.55714 -11.14151,49.6721 -28.78308,64.03597 19.09162,-7.12886 33.9131,-31.00734 34.82636,-67.56408 0.55568,-22.24468 12.81166,-29.27937 26.78887,-27.87349 -6.25117,6.74331 -9.51562,20.05376 -9.56303,34.50208 -0.10197,30.71896 -19.85882,70.10773 -34.81748,77.16678 9.16239,-3.42276 26.88612,-6.39811 39.92559,-22.96222 6.52606,-8.29007 11.42896,-23.1916 12.31289,-34.76011 0.60906,-7.97115 1.21644,-17.98503 -3.76946,-21.45239 -2.72124,-1.89244 -7.96891,10.83106 -9.40186,13.83518 1.25574,-17.59629 1.9729,-28.49169 9.79783,-42.39983 -1.01777,10.20902 0.29737,18.59952 5.97128,25.88556 1.93482,2.48457 9.60596,23.69715 3.57428,49.61552 -3.90066,16.76129 -18.23586,32.93227 -47.66008,49.73417 -38.87212,22.19687 -127.04157,70.33866 -127.04157,70.33866 l 31.76001,-53.86387 z" />
</svg>
